<svg width="775" height="479" viewBox="0 0 775 479" fill="none" xmlns="http://www.w3.org/2000/svg">
<path d="M620.525 419.599H634.813C647.016 419.599 653.118 413.646 653.118 401.74V395.489H538.818V349.501L662.941 182.516H733.039V343.697H774.562V395.489H733.039V401.74C733.039 413.646 739.141 419.599 751.345 419.599H765.633V471.391H620.525V419.599ZM659.816 343.697V289.672L619.632 343.697H659.816Z" fill="#242424"/>
<path d="M393.94 478.534C349.777 478.534 317.085 472.423 295.864 460.202C274.643 447.835 251.674 412.71 251.674 387.831C251.674 363.097 247.854 328.254 269.075 316.178C286.338 309.364 348.847 331.037 393.94 325.957C445.128 320.19 486.514 277.829 507.735 289.905C528.956 301.981 523.847 379.598 523.847 404.332C523.847 429.211 513.236 447.835 492.015 460.202C470.794 472.423 438.102 478.534 393.94 478.534ZM393.94 453C410.572 453 423.19 449.217 431.793 441.651C440.683 434.085 445.128 421.646 445.128 404.332C445.128 387.309 440.683 375.088 431.793 367.668C423.19 360.247 410.572 356.537 393.94 356.537C377.307 356.537 364.546 360.247 355.656 367.668C347.053 375.088 342.751 387.309 342.751 404.332C342.751 421.646 347.053 434.085 355.656 441.651C364.546 449.217 377.307 453 393.94 453Z" fill="#242424"/>
<path d="M81.7067 419.599H95.9942C108.198 419.599 114.3 413.646 114.3 401.74V395.489H0V349.501L124.123 182.516H194.221V343.697H235.744V395.489H194.221V401.74C194.221 413.646 200.323 419.599 212.527 419.599H226.814V471.391H81.7067V419.599ZM120.997 343.697V289.672L80.8137 343.697H120.997Z" fill="#242424"/>
<path d="M520.727 40.0983C519.181 38.1241 517.682 36.0987 516.208 34.0733C510.88 26.6638 489.856 0 462.671 0C431.086 0 372.103 3.69191 341.351 24.8948C310.599 46.0976 266.575 47.9436 254.921 88.529C243.291 129.114 213.371 166.931 239.129 225.95C264.886 284.97 256.586 298.814 290.644 304.352C324.702 309.89 369.582 318.197 411.132 308.044C452.682 297.891 534.117 240.718 541.585 214.9C549.053 189.082 559.042 155.881 558.21 123.602C557.377 91.3236 548.244 69.1977 539.088 60.8909C532.833 55.1992 524.984 45.6105 520.679 40.1496L520.727 40.0983Z" fill="#242424"/>
</svg>
