<svg width="860" height="554" viewBox="0 0 860 554" fill="none" xmlns="http://www.w3.org/2000/svg">
<path d="M764.284 542.729C764.284 548.415 739.423 553.023 708.756 553.023C678.089 553.023 653.229 548.415 653.229 542.729C653.229 537.044 678.089 532.436 708.756 532.436C739.423 532.436 764.284 537.044 764.284 542.729Z" fill="#E7E7E7"/>
<path d="M656.868 486.923C622.6 471.451 601.452 450.651 593.424 424.525C585.497 398.176 590.124 365.975 607.304 327.924C624.383 290.095 645.326 265.663 670.131 254.628C694.937 243.593 724.474 245.811 758.743 261.283C793.012 276.755 814.21 297.444 822.338 323.348C830.466 349.252 825.99 381.118 808.911 418.947C791.731 456.999 770.637 481.765 745.631 493.245C720.725 504.502 691.137 502.395 656.868 486.923ZM674.501 447.87C687.407 453.697 699.81 452.332 711.71 443.775C723.833 435.318 735.872 417.849 747.828 391.369C759.582 365.334 764.573 345.084 762.798 330.621C761.246 316.258 754.017 306.164 741.111 300.336C728.204 294.509 715.74 295.713 703.718 303.947C691.918 312.282 680.141 329.467 668.387 355.502C656.431 381.982 651.179 402.515 652.63 417.101C654.304 431.786 661.594 442.043 674.501 447.87Z" fill="#242424"/>
<path d="M118.515 457.674C70.1971 457.674 0 457.674 0 418.473V364.23H83.8719V396.594C95.4194 401.76 107.575 404.343 120.338 404.343C132.797 404.343 141.762 399.785 147.232 390.668C153.005 381.248 155.892 367.269 155.892 348.732C155.892 332.019 151.942 319.863 144.041 312.266C136.14 304.365 123.985 300.415 107.575 300.415H9.57233V265.772L18.6888 155.918H230.192V209.25H97.5466L93.4442 246.627H117.147C198.588 246.627 239.308 280.662 239.308 348.732C239.308 383.679 229.28 410.572 209.224 429.413C189.471 448.254 159.235 457.674 118.515 457.674Z" fill="#242424"/>
<path d="M753.958 25.3546C752.98 24.1063 752.033 22.8256 751.1 21.5449C747.732 16.8598 734.438 0 717.248 0C697.277 0 659.981 2.33444 640.536 15.7413C621.091 29.1481 593.255 30.3153 585.886 55.978C578.532 81.6406 559.613 105.552 575.9 142.871C592.187 180.19 586.938 188.944 608.474 192.445C630.009 195.947 658.387 201.2 684.66 194.78C710.932 188.36 762.424 152.209 767.147 135.884C771.869 119.559 778.185 98.5653 777.659 78.1551C777.132 57.745 771.357 43.7546 765.568 38.5021C761.612 34.9031 756.65 28.8401 753.928 25.387L753.958 25.3546Z" fill="#242424"/>
<path d="M353.205 108.584C385.225 96.859 413.487 93.6428 437.992 98.9308V107.52L431.378 120.944L428.544 138.843L439.208 120.944L447.117 112.709L448.802 101.898C453.988 103.639 458.99 105.796 463.805 108.375C493.594 124.327 517.37 156.559 535.133 205.069C540.254 219.053 544.136 232.348 546.785 244.952L507.578 262.747L469.958 255.154L464.236 256.303C462.193 249.221 459.715 241.704 456.803 233.751C444.578 200.365 431.378 178.015 417.203 166.701C403.313 155.283 388.093 152.604 371.543 158.664C354.992 164.725 344.958 176.651 341.441 194.443C338.209 212.13 342.707 237.668 354.932 271.054C358.463 280.696 362.056 289.441 365.712 297.289L363.592 297.6L363.44 297.621L363.327 297.725L356.445 303.986L356.405 304.023L352.427 309.676L343.614 309.33L343.431 309.323L343.286 309.437L327.795 321.612L328.348 322.443L345.48 312.889L355.426 314.229L359.609 305.926L367.259 300.547C376.008 318.633 385.113 331.633 394.575 339.546C408.854 351.145 424.269 353.914 440.82 347.854C457.37 341.793 467.209 329.777 470.336 311.804C472.171 302.088 471.714 290.078 468.97 275.775L480.947 279.369L509.43 295.941L537.436 290.225L550.544 294.994C549.592 306.176 547.274 316.592 543.583 326.243C531.243 357.945 503.102 381.842 459.158 397.934C415.213 414.025 378.294 413.952 348.401 397.715C318.403 381.192 294.47 348.532 276.602 299.736C258.839 251.227 256.179 211.263 268.623 179.847C281.066 148.43 309.26 124.676 353.205 108.584Z" fill="#242424"/>
<path d="M309.801 407.531C306.587 410.261 300.686 408.595 296.62 403.81C292.555 399.024 291.865 392.931 295.079 390.201C302.898 399.404 304.195 389.136 308.26 393.922C312.326 398.707 321.713 397.411 309.801 407.531Z" fill="#242424"/>
<path d="M589.134 245.716C591.362 248.025 589.67 253.273 585.354 257.438C581.038 261.603 575.733 263.108 573.505 260.799C571.277 258.491 572.969 253.243 577.285 249.078C581.601 244.912 586.906 243.408 589.134 245.716Z" fill="#242424"/>
<path d="M566.035 229.059C567.415 230.488 567.491 232.653 566.205 233.894C564.919 235.135 562.758 234.982 561.379 233.553C559.999 232.124 559.923 229.959 561.209 228.718C565.146 224.918 564.656 227.629 566.035 229.059Z" fill="#242424"/>
<path d="M446.066 43.9664C448.279 46.2588 448.4 49.7306 446.338 51.721C444.275 53.7114 440.81 53.4666 438.598 51.1742C436.385 48.8818 436.264 45.4099 438.326 43.4195C444.64 37.3259 443.854 41.674 446.066 43.9664Z" fill="#242424"/>
<path d="M286.292 439.665C287.931 442.759 285.574 447.221 281.026 449.631C276.478 452.041 271.462 451.486 269.822 448.392C268.183 445.297 270.54 440.835 275.088 438.425C279.636 436.016 284.652 436.57 286.292 439.665Z" fill="#242424"/>
<path d="M320.338 435.212C319.407 437.774 317.236 439.335 315.491 438.7C313.746 438.065 313.086 435.474 314.018 432.913C314.95 430.352 317.12 428.79 318.865 429.425C320.611 430.06 321.27 432.651 320.338 435.212Z" fill="#242424"/>
</svg>
