<svg width="60" height="60" viewBox="0 0 60 60" fill="none" xmlns="http://www.w3.org/2000/svg">
<g clip-path="url(#clip0_3414_23296)">
<path d="M28 1.1547C29.2376 0.440169 30.7624 0.440169 32 1.1547L53.9808 13.8453C55.2184 14.5598 55.9808 15.8803 55.9808 17.3094V42.6906C55.9808 44.1197 55.2184 45.4402 53.9808 46.1547L32 58.8453C30.7624 59.5598 29.2376 59.5598 28 58.8453L6.01924 46.1547C4.78163 45.4402 4.01924 44.1197 4.01924 42.6906V17.3094C4.01924 15.8803 4.78163 14.5598 6.01924 13.8453L28 1.1547Z" fill="#373737"/>
<path d="M38.8799 40H34.5303L33.0459 36.0703H24.3652L22.8604 40H18.5996L27.0898 18.9102H30.4199L38.8799 40ZM25.6758 32.6504H31.7529L28.7344 24.6611L25.6758 32.6504ZM39.8584 21.4277H42.1963V23.2061H39.8584V25.7119H38.0381V23.2061H35.6865V21.4277H38.0381V18.8945H39.8584V21.4277Z" fill="#EDFF98"/>
</g>
<defs>
<clipPath id="clip0_3414_23296">
<rect width="60" height="60" fill="white"/>
</clipPath>
</defs>
</svg>
