<svg xmlns="http://www.w3.org/2000/svg" width="134" height="24" viewBox="0 0 134 24" fill="none">
  <g clip-path="url(#clip0_2751_29083)">
    <path d="M5.56836 6.50089C7.12416 6.50098 8.35659 7.08008 8.98047 7.99796L9.05762 7.5087C9.11936 7.14769 9.43516 6.87686 9.8125 6.87686H12.2236C12.362 6.87707 12.4774 6.98974 12.4775 7.12491V17.3427C12.4775 21.3456 10.1201 23.7616 6.20703 23.7616C2.71017 23.754 0.360594 21.82 0.0292969 18.6601C0.0292969 18.645 0.0373329 18.6376 0.0527344 18.6376H1.81641C2.52506 18.6376 3.2263 18.9156 3.68848 19.4423C4.22768 20.0668 4.96752 20.6239 6.18457 20.6239C7.87887 20.6238 8.94907 19.638 8.94922 18.0507C8.94922 17.5014 8.36397 17.1703 7.86328 17.411C7.20097 17.7345 6.38461 17.9149 5.49902 17.9149C2.29473 17.9225 0.0763068 15.6202 0.0761719 12.2646C0.0761719 8.90877 2.34086 6.50089 5.56836 6.50089ZM26.0205 11.8329C29.6563 11.8329 32.3145 14.2035 32.3145 17.7323C32.3144 21.2611 29.6562 23.6083 26.0205 23.6083C22.385 23.6082 19.7041 21.261 19.7041 17.7323C19.7041 14.2036 22.3618 11.8331 26.0205 11.8329ZM75.4912 5.42667C77.0471 5.42667 78.2794 6.00586 78.9033 6.92374L78.9805 6.43448C79.0421 6.07344 79.358 5.80273 79.7354 5.80264H82.2314C82.3236 5.80275 82.4001 5.87766 82.4004 5.96768V16.2685C82.4004 20.2712 80.0438 22.6863 76.1309 22.6864C72.6415 22.6864 70.2843 20.7528 69.9531 17.5927C69.9532 17.578 69.9606 17.5704 69.9756 17.5702H71.7402C72.4488 17.5703 73.1492 17.8493 73.6113 18.3759C74.1505 19.0004 74.8904 19.5565 76.1074 19.5566C77.8021 19.5566 78.873 18.5709 78.873 16.9833C78.8729 16.4344 78.2876 16.1034 77.7871 16.3437C77.1247 16.6672 76.3077 16.8485 75.4219 16.8485C72.2176 16.8485 69.9992 14.5459 69.999 11.1903C69.999 7.83456 72.2637 5.42669 75.4912 5.42667ZM94.3252 5.41202C97.5063 5.41219 99.7246 7.57927 99.7246 11.1757C99.7244 14.772 97.7599 17.2548 94.3477 17.2548C92.7687 17.2547 91.305 16.6753 90.6426 15.8251V22.0927C90.6426 22.2131 90.5423 22.3036 90.4268 22.3036H87.3379C87.2149 22.3034 87.123 22.2054 87.123 22.0927V5.96085C87.1231 5.85556 87.2154 5.76553 87.3232 5.76553V5.77237H89.0332C89.8419 5.77249 90.52 6.35977 90.6201 7.13468C91.2595 6.10398 92.7 5.41202 94.3252 5.41202ZM32.1602 10.3583H34.3789C35.0952 10.3584 35.7195 10.8254 35.9121 11.495L36.6357 13.9999C36.8745 14.8426 37.0982 15.7913 37.2754 16.7694H37.4141C37.5835 15.8665 37.7221 15.3693 38.1611 13.9999L39.2471 10.5995C39.2933 10.4566 39.4319 10.3583 39.5859 10.3583H42.6748C42.8287 10.3583 42.9673 10.4636 43.0137 10.6064L44.0146 13.9999C44.1148 14.331 44.5388 15.9265 44.7236 16.8144H44.8623C45.0626 15.8889 45.4936 14.3535 45.5938 13.9999L46.3877 11.3515C46.5649 10.7572 47.1194 10.3505 47.751 10.3505H50.1309C50.2695 10.3505 50.3695 10.4863 50.3232 10.6142L46.5264 21.2011C46.457 21.3965 46.2722 21.5241 46.0645 21.5243H43.5068C43.2913 21.5243 43.0989 21.3815 43.0371 21.1786L42.043 17.9657C41.6039 16.5512 41.3271 15.437 41.1885 14.7899C41.1653 14.6924 41.034 14.6924 41.0107 14.7899C40.8798 15.3467 40.626 16.2725 40.0791 18.0331L39.085 21.1786C39.0232 21.3815 38.8308 21.5165 38.6152 21.5165H35.9043C35.6886 21.5165 35.5029 21.3811 35.4336 21.1855L31.9443 10.6064C31.8985 10.4786 31.9992 10.3437 32.1377 10.3437L32.1602 10.3583ZM26.0205 14.9257C24.4031 14.9258 23.2559 16.0474 23.2559 17.7177C23.2561 19.3877 24.3801 20.531 26.0205 20.5312C27.6457 20.5312 28.7625 19.4104 28.7627 17.7177C28.7627 16.0247 27.6381 14.9257 26.0205 14.9257ZM48.2568 1.27335C49.1887 1.34105 49.8972 2.03307 49.8975 2.94327C49.8975 3.88367 49.1815 4.41867 48.1572 4.64444L18.2129 11.956C18.0203 12.0011 17.8896 12.1663 17.8818 12.3544V18.7655C17.8739 18.9685 17.7039 19.1337 17.4961 19.1337H14.6543C14.4465 19.1337 14.2766 18.9685 14.2764 18.7655V7.18546C14.2764 7.05755 14.3769 6.95987 14.5078 6.95987H15.5859C17.0231 6.95987 17.5497 8.53074 17.5576 8.5546C17.5576 8.5546 47.0079 1.18335 48.2568 1.27335ZM54.9404 5.57901C55.1789 5.57925 55.3709 5.76701 55.3711 5.99991L55.2998 16.9687C55.2998 17.2019 55.1069 17.3896 54.8682 17.3896H52.2109C51.9722 17.3896 51.7793 17.2019 51.7793 16.9687L51.8516 5.99991C51.8518 5.76694 52.0437 5.57915 52.2822 5.57901H54.9404ZM64.2275 5.788C66.9541 5.78811 68.5253 7.48827 68.5254 10.4149V17.0214C68.5254 17.1868 68.387 17.3219 68.2178 17.3222H65.3135C65.144 17.3222 65.0049 17.1869 65.0049 17.0214V11.2431C65.0049 9.83617 64.2043 8.91804 62.9951 8.91788C61.6009 8.91788 60.707 9.8137 60.707 11.1982V17.0214C60.707 17.1868 60.5687 17.3219 60.3994 17.3222H57.4951C57.3257 17.3222 57.1865 17.1869 57.1865 17.0214H57.1787V6.46475C57.1788 6.29179 57.3258 6.14932 57.5029 6.14932H59.2822C59.9831 6.14942 60.5917 6.63799 60.7227 7.30753C61.4314 6.34455 62.7333 5.788 64.2275 5.788ZM128.917 4.7421C131.674 4.74224 133.623 6.29206 133.692 8.60928C133.692 8.68453 133.631 8.74503 133.554 8.74503H132.052C131.228 8.74503 130.38 8.47402 129.856 7.84952C129.618 7.5636 129.24 7.39053 128.739 7.39053C127.892 7.3906 127.353 7.81946 127.353 8.45889C127.353 9.00057 127.815 9.30916 128.662 9.50479L130.919 9.97843C132.906 10.4073 134.001 11.3033 134.001 13.2069C134.001 15.7424 131.79 17.285 128.64 17.2851C125.489 17.2851 123.533 15.7125 123.425 13.4179C123.425 13.3201 123.509 13.2294 123.609 13.2294H125.396C126.144 13.2294 126.814 13.5755 127.338 14.0946C127.646 14.3954 128.131 14.5614 128.793 14.5614C129.956 14.5614 130.496 14.1549 130.496 13.538C130.496 13.1844 130.303 12.8003 129.402 12.6122L127.168 12.1386C124.934 11.6646 123.841 10.7159 123.841 8.63175C123.841 6.16402 125.998 4.7421 128.917 4.7421ZM117.329 2.62491C118.97 2.62508 120.294 3.91893 120.294 5.52139V5.75479C120.294 6.05576 120.256 6.08585 120.564 6.08585H122.112C122.312 6.08588 122.467 6.24366 122.467 6.43155V8.59854C122.467 8.79415 122.305 8.94519 122.112 8.94522H120.464C120.372 8.94522 120.294 9.02013 120.294 9.11026V16.9208C120.294 17.1089 120.14 17.2597 119.947 17.2597H117.121C116.953 17.2597 116.813 17.144 116.781 16.9892L116.774 16.9208V9.11807C116.774 9.02781 116.697 8.95303 116.604 8.95303H114.956C114.756 8.95291 114.602 8.79438 114.602 8.60636V6.43936C114.602 6.24389 114.764 6.09379 114.956 6.09366H116.604C116.697 6.09366 116.774 6.01793 116.774 5.92764V2.97843C116.774 2.67746 116.867 2.62491 117.175 2.62491H117.329ZM107.519 5.42764C111.154 5.42783 113.811 7.7974 113.812 11.3261C113.812 14.8548 111.154 17.2019 107.519 17.2021C103.883 17.2021 101.202 14.8549 101.202 11.3261C101.202 7.79726 103.86 5.42764 107.519 5.42764ZM6.25391 9.50284C4.6286 9.50284 3.61914 10.6015 3.61914 12.1816C3.61917 13.7615 4.72056 14.9275 6.27637 14.9276C7.87854 14.9276 8.957 13.8293 8.95703 12.1816C8.95703 10.5339 7.87901 9.50299 6.25391 9.50284ZM93.4619 8.57218C91.7905 8.57226 90.6739 9.69296 90.6738 11.3632C90.6738 13.0335 91.8213 14.1551 93.4619 14.1552C95.1334 14.1552 96.1885 13.0185 96.1885 11.3632C96.1884 9.70794 95.1334 8.57218 93.4619 8.57218ZM107.519 8.51944C105.901 8.51944 104.745 9.64106 104.745 11.3114C104.745 12.9816 105.87 14.1249 107.519 14.1249C109.144 14.1247 110.261 13.004 110.261 11.3114C110.261 9.61864 109.136 8.51964 107.519 8.51944ZM76.1768 8.42862C74.5515 8.42864 73.542 9.52727 73.542 11.1073C73.5421 12.6873 74.6443 13.8534 76.2002 13.8534C77.8022 13.8533 78.8808 12.7549 78.8809 11.1073C78.8809 9.45953 77.8021 8.42862 76.1768 8.42862ZM52.4111 0.27823C53.9439 -0.526677 55.5077 0.489271 55.5078 1.94132C55.5078 3.03979 54.6142 3.90509 53.5205 3.90518C52.0955 3.90518 51.0475 2.50561 51.71 1.02335H51.7021C51.8408 0.707337 52.0953 0.44376 52.4111 0.27823Z" fill="#FAFAFA"/>
  </g>
  <defs>
    <clipPath id="clip0_2751_29083">
      <rect width="134" height="24" fill="white"/>
    </clipPath>
  </defs>
</svg>