<svg width="160" height="160" viewBox="0 0 160 160" fill="none" xmlns="http://www.w3.org/2000/svg">
<path d="M136.379 126.54L153.377 132.183C153.784 132.318 154.209 132.387 154.637 132.387L156.331 132.387C157.843 132.387 159.235 131.525 159.578 130.052C159.815 129.035 160 127.783 160 126.402C160 122.812 153.991 119.221 153.991 118.024C153.991 116.827 146.78 108.449 146.78 104.858V72.5415C146.78 61.7693 135.963 52.194 133.559 45.0126C131.156 37.8311 120.339 37.831 109.522 28.2557C98.7056 18.6804 73.4668 28.2557 53.0353 28.2557C32.6039 28.2557 24.1909 40.2248 12.1724 47.4063C0.153909 54.5877 1.35575 64.163 0.153904 76.1321C-1.04795 88.1012 4.96131 104.858 12.1724 114.433C19.3835 124.009 43.4205 126.402 63.852 126.402C79.6171 126.402 108.575 121.949 122.473 119.485C123.426 119.316 124.402 119.494 125.233 119.991L135.587 126.178C135.837 126.327 136.102 126.449 136.379 126.54Z" fill="#474747"/>
<path d="M38.7109 66.2656C42.9856 66.2663 46.4522 69.7333 46.4531 74.0078C46.4531 78.2832 42.9861 81.7493 38.7109 81.75C34.4352 81.75 30.9688 78.2836 30.9688 74.0078C30.9697 69.7328 34.4358 66.2656 38.7109 66.2656ZM72.2578 66.2656C76.533 66.2656 79.9991 69.7328 80 74.0078C80 78.2836 76.5336 81.75 72.2578 81.75C67.9822 81.7499 64.5156 78.2835 64.5156 74.0078C64.5165 69.7329 67.9827 66.2658 72.2578 66.2656ZM105.805 66.2656C110.08 66.2656 113.546 69.7328 113.547 74.0078C113.547 78.2836 110.08 81.75 105.805 81.75C101.53 81.7491 98.0664 78.283 98.0664 74.0078C98.0673 69.7334 101.53 66.2665 105.805 66.2656Z" fill="#E3FF75"/>
</svg>
