<svg width="60" height="60" viewBox="0 0 60 60" fill="none" xmlns="http://www.w3.org/2000/svg">
<g clip-path="url(#clip0_3414_23279)">
<path d="M28 1.1547C29.2376 0.440169 30.7624 0.440169 32 1.1547L53.9808 13.8453C55.2184 14.5598 55.9808 15.8803 55.9808 17.3094V42.6906C55.9808 44.1197 55.2184 45.4402 53.9808 46.1547L32 58.8453C30.7624 59.5598 29.2376 59.5598 28 58.8453L6.01924 46.1547C4.78163 45.4402 4.01924 44.1197 4.01924 42.6906V17.3094C4.01924 15.8803 4.78163 14.5598 6.01924 13.8453L28 1.1547Z" fill="#373737"/>
<path d="M35.9463 17C36.1108 16.9991 36.2745 17.0306 36.4268 17.0928C36.5789 17.155 36.7173 17.2466 36.834 17.3623L42.1328 22.6621C42.2485 22.7788 42.3402 22.9173 42.4024 23.0694C42.4646 23.2216 42.4961 23.3853 42.4951 23.5498L42.4961 23.7305C42.5081 23.8301 42.4203 23.9873 42.4082 24.0869C42.3401 24.2387 42.2467 24.3778 42.1328 24.499L38.584 27.9746L24.999 41.6358C24.875 41.7593 24.7261 41.8555 24.5625 41.918C24.4397 41.9648 24.3104 41.9915 24.1797 41.9981H18.75C18.4186 41.9981 18.1006 41.8663 17.8662 41.6319C17.6319 41.3975 17.5 41.0795 17.5 40.7481V35.4483C17.4991 35.2839 17.5307 35.1209 17.5928 34.9688C17.6549 34.8166 17.7466 34.6783 17.8623 34.5615L31.5225 20.8994L35.0596 17.3623C35.1763 17.2466 35.3147 17.155 35.4668 17.0928C35.6189 17.0307 35.782 16.9991 35.9463 17ZM34.1719 21.7871L37.709 25.3242L39.4707 23.5498L35.9463 20.0244L34.1719 21.7871Z" fill="#EDFF98"/>
</g>
<defs>
<clipPath id="clip0_3414_23279">
<rect width="60" height="60" fill="white"/>
</clipPath>
</defs>
</svg>
