<svg width="60" height="60" viewBox="0 0 60 60" fill="none" xmlns="http://www.w3.org/2000/svg">
<g clip-path="url(#clip0_3414_23340)">
<path d="M28 1.1547C29.2376 0.440169 30.7624 0.440169 32 1.1547L53.9808 13.8453C55.2184 14.5598 55.9808 15.8803 55.9808 17.3094V42.6906C55.9808 44.1197 55.2184 45.4402 53.9808 46.1547L32 58.8453C30.7624 59.5598 29.2376 59.5598 28 58.8453L6.01924 46.1547C4.78163 45.4402 4.01924 44.1197 4.01924 42.6906V17.3094C4.01924 15.8803 4.78163 14.5598 6.01924 13.8453L28 1.1547Z" fill="#373737"/>
<path d="M37.25 14.1569C37.5004 14.0761 37.7613 14.2467 37.7881 14.5085L38.9189 25.5837C38.928 25.6725 38.9521 25.7592 38.9912 25.8395L44.7324 37.6178C44.7944 37.7451 44.7502 37.8988 44.6299 37.9733L35.1621 43.8337C34.9881 43.9414 34.7842 43.9919 34.5801 43.9762L25.1201 43.2477C24.8128 43.224 24.535 43.0549 24.373 42.7927L18.1133 32.6579C18.039 32.5377 18 32.3988 18 32.2575V19.3874C18 19.013 18.2718 18.6932 18.6416 18.6345L27.8887 17.1667C27.9274 17.1605 27.9656 17.1514 28.0029 17.1393L37.25 14.1569ZM36.6494 28.5973C36.4269 28.0921 35.8374 27.8625 35.332 28.0846L27.625 31.4743L23.6729 31.8317C23.1232 31.8815 22.7173 32.368 22.7666 32.9177C22.8163 33.4675 23.3027 33.8734 23.8525 33.8239L28.1299 33.4382L28.2803 33.3718L36.1367 29.9147C36.6421 29.6924 36.8716 29.1028 36.6494 28.5973ZM32.957 24.613C32.7432 24.104 32.1566 23.8641 31.6475 24.0778L26.5303 26.2243L22.6455 26.6852C22.0974 26.7502 21.705 27.2475 21.7695 27.7956C21.8344 28.3438 22.3317 28.7361 22.8799 28.6716L27.0449 28.1784L27.1748 28.1237L32.4219 25.9216C32.9308 25.7078 33.1705 25.122 32.957 24.613Z" fill="#EDFF98"/>
</g>
<defs>
<clipPath id="clip0_3414_23340">
<rect width="60" height="60" fill="white"/>
</clipPath>
</defs>
</svg>
