<svg width="60" height="60" viewBox="0 0 60 60" fill="none" xmlns="http://www.w3.org/2000/svg">
<g clip-path="url(#clip0_3414_23285)">
<path d="M28 1.1547C29.2376 0.440169 30.7624 0.440169 32 1.1547L53.9808 13.8453C55.2184 14.5598 55.9808 15.8803 55.9808 17.3094V42.6906C55.9808 44.1197 55.2184 45.4402 53.9808 46.1547L32 58.8453C30.7624 59.5598 29.2376 59.5598 28 58.8453L6.01924 46.1547C4.78163 45.4402 4.01924 44.1197 4.01924 42.6906V17.3094C4.01924 15.8803 4.78163 14.5598 6.01924 13.8453L28 1.1547Z" fill="#373737"/>
<path d="M42.75 30.5C42.75 23.1822 36.8178 17.25 29.5 17.25C22.1822 17.25 16.25 23.1822 16.25 30.5C16.25 37.8178 22.1822 43.75 29.5 43.75C36.8178 43.75 42.75 37.8178 42.75 30.5ZM45.25 30.5C45.25 39.1985 38.1985 46.25 29.5 46.25C20.8015 46.25 13.75 39.1985 13.75 30.5C13.75 21.8015 20.8015 14.75 29.5 14.75C38.1985 14.75 45.25 21.8015 45.25 30.5Z" fill="#EDFF98"/>
<path d="M23.6865 26.7607C25.9566 23.3772 30.5401 22.487 33.9375 24.752L33.9385 24.7529C36.2172 26.2585 37.3583 28.7646 37.2266 31.2676C36.898 30.5355 36.3629 29.8814 35.6387 29.3984L35.6348 29.3955C33.5579 28.035 30.8314 28.6081 29.4688 30.6162C28.4098 32.1765 26.2369 32.6165 24.6885 31.5684H24.6895C23.2492 30.5712 22.741 28.6959 23.5 27.0771C23.5401 27.0237 23.5738 26.9726 23.5967 26.9326C23.6291 26.8758 23.6597 26.8142 23.6865 26.7607Z" fill="#EDFF98" stroke="#373737"/>
<path d="M30.2969 31.1768C31.3564 29.6154 33.5314 29.1759 35.0801 30.2266C36.5176 31.2242 37.0237 33.0975 36.2656 34.7148C36.2254 34.7684 36.1919 34.8202 36.1689 34.8604C36.1368 34.9166 36.1057 34.9772 36.0791 35.0303C33.8093 38.4146 29.2268 39.306 25.8291 37.041L25.8271 37.04L25.5205 36.8262C23.4225 35.2888 22.3651 32.8697 22.5137 30.4639C22.8397 31.2207 23.3834 31.8982 24.1279 32.3945L24.1309 32.3975C26.2077 33.758 28.9342 33.1848 30.2969 31.1768Z" fill="#EDFF98" stroke="#373737"/>
</g>
<defs>
<clipPath id="clip0_3414_23285">
<rect width="60" height="60" fill="white"/>
</clipPath>
</defs>
</svg>
