<svg width="24" height="24" viewBox="0 0 24 24" fill="none" xmlns="http://www.w3.org/2000/svg">
<g clip-path="url(#clip0_646_619)">
<path d="M0.375 22.6504L11.7053 1.49219L24.2129 20.4875L0.375 22.6504Z" fill="#D7F856"/>
<path d="M10.5537 7.97254L11.3072 15.68C11.3172 15.7825 11.4033 15.8606 11.5062 15.8606H12.8531C12.9609 15.8606 13.0493 15.7752 13.053 15.6674L13.3302 7.5907C13.3345 7.4653 13.2236 7.36695 13.0996 7.38621L10.7221 7.75545C10.6173 7.77173 10.5434 7.86699 10.5537 7.97254Z" fill="#191919"/>
<path d="M13.4219 17.8896C13.4219 18.5509 12.8858 19.0869 12.2246 19.0869C11.5634 19.0869 11.0273 18.5509 11.0273 17.8896C11.0273 17.2284 11.5634 16.6924 12.2246 16.6924C12.8858 16.6924 13.4219 17.2284 13.4219 17.8896Z" fill="#191919"/>
</g>
<defs>
<clipPath id="clip0_646_619">
<rect width="24" height="24" fill="white"/>
</clipPath>
</defs>
</svg>
