<svg width="24" height="24" viewBox="0 0 24 24" fill="none" xmlns="http://www.w3.org/2000/svg">
<path d="M10.2526 3.08791C11.0146 1.7167 12.9865 1.71688 13.7487 3.08791L22.0494 18.0283C22.79 19.3613 21.8262 20.9998 20.3014 21H3.69982C2.17522 20.9996 1.21129 19.3612 1.95178 18.0283L10.2526 3.08791Z" fill="#FA8537"/>
<path d="M12.0098 16C12.5621 16 13.0098 16.4477 13.0098 17C13.0098 17.5523 12.5621 18 12.0098 18H12C11.4477 18 11 17.5523 11 17C11 16.4477 11.4477 16 12 16H12.0098ZM11 13V9C11 8.44772 11.4477 8 12 8C12.5523 8 13 8.44772 13 9V13C13 13.5523 12.5523 14 12 14C11.4477 14 11 13.5523 11 13Z" fill="white"/>
</svg>
