<svg width="24" height="24" viewBox="0 0 24 24" fill="none" xmlns="http://www.w3.org/2000/svg">
<path d="M3.24796 20.0891L0.528541 10.8334C0.463729 10.6128 0.496957 10.375 0.619747 10.1806L5.01428 3.22411C5.13973 3.02553 5.3461 2.89211 5.57867 2.85924L14.4694 1.6026C14.6396 1.57854 14.8131 1.60996 14.9641 1.6922L20.618 4.77216C20.7587 4.84885 20.8732 4.96605 20.9466 5.10857L23.8177 10.6867C23.9028 10.8521 23.9276 11.042 23.8879 11.2237L22.2497 18.7186C22.1987 18.9519 22.0462 19.1502 21.8338 19.2594L14.0624 23.2527C13.8838 23.3446 13.6771 23.3658 13.4835 23.3123L3.80227 20.6347C3.53559 20.5609 3.32596 20.3546 3.24796 20.0891Z" fill="#D7F856"/>
<path d="M10.4209 6.25027L11.2477 14.7076C11.2577 14.81 11.3438 14.8881 11.4467 14.8881H12.9534C13.0612 14.8881 13.1496 14.8027 13.1533 14.695L13.4576 5.828C13.4619 5.7026 13.351 5.60425 13.2271 5.62351L10.5892 6.03318C10.4844 6.04945 10.4106 6.14471 10.4209 6.25027Z" fill="#191919"/>
<path d="M13.5563 17.1053C13.5563 17.8279 12.9705 18.4137 12.2479 18.4137C11.5253 18.4137 10.9395 17.8279 10.9395 17.1053C10.9395 16.3827 11.5253 15.7969 12.2479 15.7969C12.9705 15.7969 13.5563 16.3827 13.5563 17.1053Z" fill="#191919"/>
</svg>
