<svg width="24" height="24" viewBox="0 0 24 24" fill="none" xmlns="http://www.w3.org/2000/svg">
<path d="M3.24796 20.0891L0.528541 10.8334C0.463729 10.6128 0.496957 10.375 0.619747 10.1806L5.01428 3.22411C5.13973 3.02553 5.3461 2.89211 5.57867 2.85924L14.4694 1.6026C14.6396 1.57854 14.8131 1.60996 14.9641 1.6922L20.618 4.77216C20.7587 4.84885 20.8732 4.96605 20.9466 5.10857L23.8177 10.6867C23.9028 10.8521 23.9276 11.042 23.8879 11.2237L22.2497 18.7186C22.1987 18.9519 22.0462 19.1502 21.8338 19.2594L14.0624 23.2527C13.8838 23.3446 13.6771 23.3658 13.4835 23.3122L3.80227 20.6347C3.53559 20.5609 3.32596 20.3546 3.24796 20.0891Z" fill="#373737"/>
<path d="M19.06 8.35967C19.1387 8.44139 19.178 8.48226 19.1919 8.52868C19.2041 8.56951 19.203 8.61317 19.1886 8.6533C19.1723 8.69893 19.1309 8.73769 19.0481 8.81519L10.0602 17.227C9.98276 17.2995 9.94403 17.3358 9.89996 17.3494C9.86117 17.3613 9.81965 17.3612 9.78093 17.349C9.73694 17.3351 9.69844 17.2987 9.62144 17.2257L5.25543 13.088C5.17049 13.0075 5.12802 12.9672 5.11212 12.9203C5.09815 12.879 5.09804 12.8343 5.1118 12.793C5.12745 12.746 5.16972 12.7055 5.25424 12.6246L6.29956 11.6238C6.37912 11.5476 6.4189 11.5095 6.46424 11.4956C6.50413 11.4833 6.54685 11.4839 6.58642 11.4971C6.6314 11.5122 6.67022 11.5512 6.74785 11.6294L9.78303 14.6839C9.80301 14.704 9.813 14.7141 9.82452 14.7178C9.83465 14.7211 9.84557 14.7211 9.85568 14.7177C9.86717 14.7139 9.87709 14.7038 9.89693 14.6835L17.3582 7.06631C17.4387 6.98413 17.4789 6.94305 17.5255 6.92785C17.5664 6.91449 17.6105 6.91468 17.6513 6.92841C17.6977 6.94401 17.7376 6.98546 17.8174 7.06835L19.06 8.35967Z" fill="#D7F856"/>
</svg>
