<svg width="24" height="24" viewBox="0 0 24 24" fill="none" xmlns="http://www.w3.org/2000/svg">
<path d="M12 1C18.0751 1 23 5.92487 23 12C23 18.0751 18.0751 23 12 23C5.92487 23 1 18.0751 1 12C1 5.92487 5.92487 1 12 1Z" fill="#0AD04D"/>
<path d="M15.7929 8.29289C16.1834 7.90237 16.8164 7.90237 17.207 8.29289C17.5975 8.68342 17.5975 9.31643 17.207 9.70696L11.207 15.707C10.8164 16.0975 10.1834 16.0975 9.79289 15.707L6.79289 12.707C6.40237 12.3164 6.40237 11.6834 6.79289 11.2929C7.18342 10.9024 7.81643 10.9024 8.20696 11.2929L10.4999 13.5859L15.7929 8.29289Z" fill="white"/>
</svg>
