<svg width="24" height="24" viewBox="0 0 24 24" fill="none" xmlns="http://www.w3.org/2000/svg">
<path d="M3.24716 20.089L0.527735 10.8333C0.462924 10.6127 0.496151 10.3749 0.618941 10.1805L5.01348 3.22399C5.13892 3.02541 5.34529 2.89199 5.57787 2.85912L14.4686 1.60248C14.6388 1.57842 14.8123 1.60984 14.9633 1.69209L20.6172 4.77205C20.7579 4.84873 20.8724 4.96593 20.9458 5.10846L23.8169 10.6866C23.902 10.852 23.9268 11.0418 23.8871 11.2235L22.2489 18.7185C22.1979 18.9518 22.0453 19.1501 21.833 19.2592L14.0616 23.2526C13.883 23.3444 13.6763 23.3657 13.4827 23.3121L3.80146 20.6345C3.53479 20.5608 3.32516 20.3545 3.24716 20.089Z" fill="#D7F856"/>
<path d="M19.0602 8.35986C19.1388 8.44159 19.1781 8.48246 19.192 8.52888C19.2042 8.5697 19.2031 8.61337 19.1888 8.6535C19.1725 8.69913 19.1311 8.73788 19.0483 8.81539L10.0603 17.2272C9.98289 17.2997 9.94416 17.336 9.90009 17.3496C9.86129 17.3615 9.81977 17.3614 9.78105 17.3492C9.73707 17.3353 9.69857 17.2989 9.62156 17.2259L5.25555 13.0882C5.17061 13.0077 5.12814 12.9674 5.11225 12.9205C5.09828 12.8792 5.09817 12.8345 5.11193 12.7932C5.12758 12.7462 5.16984 12.7057 5.25437 12.6248L6.29969 11.624C6.37925 11.5478 6.41903 11.5097 6.46436 11.4958C6.50425 11.4835 6.54698 11.4841 6.58655 11.4973C6.63153 11.5124 6.67034 11.5514 6.74798 11.6296L9.78315 14.6841C9.80313 14.7042 9.81312 14.7143 9.82465 14.718C9.83478 14.7213 9.8457 14.7213 9.8558 14.7179C9.8673 14.7141 9.87722 14.704 9.89705 14.6837L17.3583 7.06651C17.4388 6.98433 17.4791 6.94324 17.5256 6.92805C17.5665 6.91469 17.6107 6.91488 17.6515 6.9286C17.6979 6.94421 17.7377 6.98566 17.8175 7.06855L19.0602 8.35986Z" fill="black"/>
</svg>
