<svg width="16" height="16" viewBox="0 0 16 16" fill="none" xmlns="http://www.w3.org/2000/svg">
<g clip-path="url(#clip0_2086_17986)">
<path d="M2.16478 13.3926L0.351831 7.22211C0.308624 7.07505 0.330775 6.91651 0.412636 6.78693L3.34233 2.14924C3.42596 2.01686 3.56354 1.92791 3.71859 1.906L9.64575 1.06824C9.75924 1.0522 9.87487 1.07314 9.97552 1.12797L13.7448 3.18128C13.8386 3.2324 13.915 3.31053 13.9639 3.40555L15.8779 7.12431C15.9347 7.23456 15.9512 7.36114 15.9248 7.48228L14.8326 12.4789C14.7986 12.6344 14.6969 12.7666 14.5553 12.8394L9.37443 15.5017C9.25533 15.5629 9.11756 15.577 8.9885 15.5413L2.53432 13.7563C2.35653 13.7071 2.21678 13.5696 2.16478 13.3926Z" fill="#373737"/>
<path d="M12.7068 5.57344C12.7592 5.62792 12.7854 5.65516 12.7947 5.68611C12.8028 5.71333 12.8021 5.74244 12.7925 5.76919C12.7816 5.79961 12.754 5.82545 12.6988 5.87712L6.70689 11.485C6.65526 11.5334 6.62944 11.5575 6.60006 11.5666C6.57419 11.5746 6.54651 11.5745 6.5207 11.5663C6.49137 11.5571 6.46571 11.5328 6.41437 11.4841L3.5037 8.72566C3.44707 8.67199 3.41876 8.64516 3.40816 8.61386C3.39885 8.58635 3.39877 8.55656 3.40795 8.529C3.41838 8.49765 3.44656 8.47067 3.50291 8.41672L4.19979 7.74951C4.25283 7.69872 4.27935 7.67333 4.30957 7.66405C4.33617 7.65588 4.36465 7.65624 4.39103 7.66506C4.42101 7.6751 4.44689 7.70114 4.49865 7.75323L6.5221 9.78962C6.53542 9.80302 6.54208 9.80973 6.54976 9.81221C6.55652 9.8144 6.56379 9.81438 6.57053 9.81214C6.5782 9.8096 6.58481 9.80285 6.59803 9.78935L11.5722 4.7112C11.6259 4.65642 11.6527 4.62902 11.6837 4.61889C11.711 4.60998 11.7404 4.61011 11.7676 4.61926C11.7986 4.62967 11.8252 4.6573 11.8783 4.71256L12.7068 5.57344Z" fill="#D7F856"/>
</g>
<defs>
<clipPath id="clip0_2086_17986">
<rect width="16" height="16" fill="white"/>
</clipPath>
</defs>
</svg>
