<svg xmlns="http://www.w3.org/2000/svg" width="24" height="24" viewBox="0 0 24 24" fill="none">
  <path d="M3 9.98254C3 9.36288 3.28722 8.77822 3.77769 8.39952L11.4501 2.47536C11.8122 2.19576 12.3179 2.19755 12.678 2.47971L20.2335 8.39944C20.7173 8.77854 21 9.35908 21 9.97377V20C21 20.5523 20.5523 21 20 21H16C15.4477 21 15 20.5523 15 20V15C15 14.4477 14.5523 14 14 14H10C9.44772 14 9 14.4477 9 15V20C9 20.5523 8.55228 21 8 21H4C3.44772 21 3 20.5523 3 20V9.98254Z" fill="black" stroke="black" stroke-width="2" stroke-linejoin="round"/>
</svg>