<svg xmlns="http://www.w3.org/2000/svg" width="59" height="64" viewBox="0 0 59 64" fill="none">
  <path d="M58.2362 32.5709C58.1731 27.2761 56.6205 23.6184 55.0279 22.2316C53.9367 21.2807 52.5803 19.6838 51.8378 18.7773C51.5675 18.4502 51.3127 18.1155 51.0581 17.7731C50.1383 16.5448 46.4982 12.1109 41.7016 12.0345C39.5905 12.0008 36.7796 12.0416 33.8061 12.2937L34.0392 10.0881C34.0256 9.72222 34.4449 9.72112 34.4683 9.70983L36.7236 9.70689C37.1001 9.71289 38.9628 9.74259 39.3326 9.67847L42.1609 8.54889L47.9725 5.82155C48.3753 5.63349 48.3381 5.04557 47.9173 4.90661L42.8701 3.26639L34.095 0.0147745C33.9754 -0.0299187 33.8386 0.0301343 33.7901 0.14994L32.8559 2.50384C32.7426 2.79376 32.6679 3.09596 32.6397 3.40279L31.7882 12.4988C27.5221 12.9947 23.167 13.9638 20.2306 15.7802C14.75 19.174 6.97606 19.3496 4.82092 25.9743C2.66578 32.599 -2.71465 38.7133 1.67532 48.4646C6.06529 58.2159 4.56224 60.4596 10.5589 61.4654C16.5556 62.4673 24.4466 63.9545 31.8037 62.4109C39.1608 60.8673 53.6766 51.7169 55.0597 47.5032C56.4466 43.2895 58.2914 37.8734 58.2283 32.5786L58.2362 32.5709Z" fill="var(--Gray-gray-600, #474747)"/>
</svg>