<svg width="36" height="36" viewBox="0 0 36 36" fill="none" xmlns="http://www.w3.org/2000/svg">
<path d="M29.5982 12.0803C29.4632 11.9209 29.3324 11.7573 29.2037 11.5937C28.7386 10.9954 26.9029 8.8421 24.5295 8.8421C21.772 8.8421 16.6223 9.14025 13.9374 10.8525C11.2525 12.5648 7.40898 12.7138 6.39151 15.9914C5.37611 19.2689 2.7639 22.3228 5.01273 27.089C7.26155 31.8551 6.53686 32.9732 9.51038 33.4204C12.4839 33.8676 16.4022 34.5385 20.0298 33.7186C23.6574 32.8987 30.7673 28.2816 31.4193 26.1966C32.0713 24.1117 32.9434 21.4304 32.8707 18.8237C32.7981 16.217 32.0007 14.4302 31.2013 13.7594C30.6551 13.2998 29.9699 12.5254 29.5941 12.0844L29.5982 12.0803Z" fill="#DAF761"/>
<path d="M17.875 10.1053L18.5073 2.23898C18.5243 2.03834 18.5699 1.8377 18.644 1.64805L19.2506 0.100632C19.2819 0.0209251 19.3731 -0.0203028 19.4556 0.009931L25.445 2.04659L28.8883 3.06629C29.1788 3.15149 29.2101 3.53629 28.9367 3.66272L25.75 5.05263L23.5 5.89474C23.2494 5.94421 21.5035 5.89474 21.25 5.89474L19.7206 5.91947C19.7206 5.91947 19.5183 6.35902 19.5325 6.5954L19.2107 10.0091L17.875 10.1053Z" fill="#DAF761"/>
</svg>
