<svg xmlns="http://www.w3.org/2000/svg" width="75" height="81" viewBox="0 0 75 81" fill="none">
  <path d="M74.9988 41.2306C74.8084 34.4489 72.729 29.7949 70.6446 28.0509C69.2166 26.855 67.4328 24.837 66.4558 23.6909C66.1 23.2773 65.7643 22.8538 65.4286 22.4203C64.216 20.8656 59.4259 15.2599 53.2329 15.2599C50.5071 15.2599 46.8795 15.3695 43.0464 15.7532L43.3019 12.9229C43.2769 12.4545 43.818 12.4446 43.8481 12.4296L46.7592 12.3798C47.2452 12.3798 49.6503 12.3798 50.1263 12.2901L53.754 10.7853L61.1997 7.17269C61.7158 6.92355 61.6556 6.17114 61.1095 6.00172L54.5607 4.00359L43.1666 0.0172912C43.0113 -0.0375204 42.8359 0.0422056 42.7758 0.196675L41.6184 3.23124C41.4781 3.60496 41.3879 3.99362 41.3578 4.38727L40.4459 16.0571C34.9493 16.7797 29.3475 18.1101 25.5946 20.4969C18.5898 24.9566 8.55864 25.3402 5.91306 33.8709C3.26748 42.4016 -3.55191 50.3443 2.31547 62.7466C8.18285 75.149 6.28885 78.054 14.0502 79.22C21.8116 80.381 32.0281 82.125 41.4931 79.9973C50.9581 77.8697 69.5072 65.851 71.2058 60.4246C72.9094 54.9983 75.1792 48.0223 74.9888 41.2406L74.9988 41.2306Z" fill="white" fill-opacity="0.5"/>
</svg>