<svg width="24" height="24" viewBox="0 0 24 24" fill="none" xmlns="http://www.w3.org/2000/svg">
<path d="M16 2C16.5523 2 17 2.44772 17 3V4C17 4.0013 16.999 4.0026 16.999 4.00391C17.3375 4.00915 17.6424 4.02104 17.915 4.04492C18.4551 4.09224 18.9592 4.1945 19.4326 4.45312C20.1588 4.84985 20.7367 5.47598 21.0947 6.22949C21.3242 6.71243 21.4161 7.22603 21.459 7.78906C21.5012 8.3424 21.5 9.02519 21.5 9.86035V16.1396C21.5 16.9748 21.5012 17.6576 21.459 18.2109C21.4161 18.774 21.3242 19.2876 21.0947 19.7705C20.7367 20.524 20.1588 21.1501 19.4326 21.5469C18.9592 21.8055 18.4551 21.9078 17.915 21.9551C17.3889 22.0012 16.7425 22 15.9668 22H8.03321C7.25754 22 6.61115 22.0012 6.08496 21.9551C5.54492 21.9078 5.04078 21.8055 4.56739 21.5469C3.84119 21.1501 3.26335 20.524 2.90528 19.7705C2.6758 19.2876 2.58394 18.774 2.54102 18.2109C2.49885 17.6576 2.5 16.9748 2.5 16.1396V9.86035C2.5 9.02519 2.49885 8.3424 2.54102 7.78906C2.58394 7.22603 2.6758 6.71243 2.90528 6.22949C3.26336 5.47598 3.8412 4.84985 4.56739 4.45312C5.04078 4.1945 5.54492 4.09224 6.08496 4.04492C6.35735 4.02106 6.66193 4.00915 7 4.00391V3C7 2.44772 7.44772 2 8 2C8.55229 2 9 2.44772 9 3V4H15V3C15 2.44772 15.4477 2 16 2Z" fill="currentColor"/>
<path d="M17.8833 9.88603C17.962 9.96776 18.0013 10.0086 18.0152 10.055C18.0274 10.0959 18.0263 10.1395 18.0119 10.1797C17.9956 10.2253 17.9542 10.2641 17.8714 10.3416L10.9333 16.7643C10.8558 16.8368 10.8171 16.8731 10.773 16.8866C10.7342 16.8986 10.6927 16.8985 10.654 16.8863C10.61 16.8724 10.5715 16.8359 10.4945 16.763L6.12847 12.6253C6.04353 12.5448 6.00106 12.5045 5.98517 12.4576C5.9712 12.4163 5.97109 12.3716 5.98485 12.3303C6.0005 12.2833 6.04276 12.2428 6.12729 12.1619L7.17261 11.161C7.25217 11.0849 7.29195 11.0468 7.33728 11.0329C7.37717 11.0206 7.4199 11.0211 7.45947 11.0344C7.50444 11.0494 7.54326 11.0885 7.6209 11.1666L10.6561 14.2212C10.6761 14.2413 10.686 14.2514 10.6976 14.2551C10.7077 14.2584 10.7186 14.2583 10.7287 14.255C10.7402 14.2512 10.7501 14.2411 10.77 14.2208L16.1815 8.59268C16.262 8.5105 16.3022 8.46941 16.3488 8.45422C16.3897 8.44085 16.4338 8.44105 16.4746 8.45477C16.521 8.47038 16.5609 8.51183 16.6407 8.59471L17.8833 9.88603Z" fill="black"/>
</svg>
