<svg width="24" height="24" viewBox="0 0 24 24" fill="none" xmlns="http://www.w3.org/2000/svg">
<path d="M11.9553 19.0002C12.5075 19.0004 12.9553 19.448 12.9553 20.0002C12.9553 20.5523 12.5075 21 11.9553 21.0002H11.9368C11.3845 21.0002 10.9368 20.5525 10.9368 20.0002C10.9368 19.4479 11.3845 19.0002 11.9368 19.0002H11.9553ZM10.8841 16.5002V15.5461C10.884 15.3493 10.8833 15.1614 10.8919 15.0041C10.9007 14.843 10.921 14.6462 10.9915 14.4406L11.0755 14.2306C11.1671 14.0321 11.2853 13.8645 11.4495 13.6955L11.5725 13.5812C11.6982 13.4763 11.8284 13.3972 11.9358 13.3361C12.0844 13.2516 12.2722 13.1562 12.4798 13.0509C13.042 12.7658 13.7031 12.3573 14.2112 11.842C14.7167 11.3292 15.0003 10.7871 15.0003 10.2033V10.2023C15.0014 9.44209 14.7384 8.70812 14.262 8.13103C13.7859 7.55441 13.128 7.17213 12.4075 7.04607C11.6871 6.92009 10.9449 7.05734 10.3118 7.43669C9.67832 7.81625 9.19251 8.41473 8.94557 9.13005C8.76543 9.65213 8.19617 9.92934 7.67409 9.74919C7.1521 9.569 6.87482 8.99974 7.05495 8.47771C7.4533 7.32354 8.241 6.34555 9.28346 5.72087C10.3266 5.09584 11.5563 4.86623 12.7522 5.07536C13.9478 5.28452 15.028 5.91789 15.804 6.85759C16.5793 7.79659 17.0017 8.98182 17.0003 10.2033L16.9924 10.4426C16.9193 11.6205 16.3142 12.5583 15.636 13.2463C14.9152 13.9775 14.0424 14.5017 13.385 14.8351C13.1595 14.9495 13.0221 15.0192 12.9251 15.0744C12.9113 15.0822 12.8996 15.0891 12.8899 15.0949C12.8895 15.1004 12.8893 15.1067 12.8889 15.1134C12.884 15.2034 12.8841 15.3273 12.884 15.5461V16.5002C12.884 17.0523 12.4361 17.4999 11.884 17.5002C11.3318 17.5002 10.8841 17.0525 10.8841 16.5002Z" fill="black"/>
</svg>
