<svg width="24" height="24" viewBox="0 0 24 24" fill="none" xmlns="http://www.w3.org/2000/svg">
<path fill-rule="evenodd" clip-rule="evenodd" d="M19 15C21.2091 15 23 16.7909 23 19C23 21.2091 21.2091 23 19 23C16.7909 23 15 21.2091 15 19C15 16.7909 16.7909 15 19 15ZM19 17C17.8954 17 17 17.8954 17 19C17 20.1046 17.8954 21 19 21C20.1046 21 21 20.1046 21 19C21 17.8954 20.1046 17 19 17Z" fill="black"/>
<path d="M15.6562 4C18.5893 4.00003 19.7797 7.77594 17.377 9.45801L7.77246 16.1807C6.97149 16.7413 7.36799 18 8.3457 18H13.001C13.5532 18 14.001 18.4477 14.001 19C14.001 19.5523 13.5532 20 13.001 20H8.3457C5.4126 20 4.22217 16.2241 6.625 14.542L16.2295 7.81934C17.0304 7.25865 16.6339 6.00003 15.6562 6H11.001C10.4487 6 10.001 5.55228 10.001 5C10.001 4.44772 10.4487 4 11.001 4H15.6562Z" fill="black"/>
<path fill-rule="evenodd" clip-rule="evenodd" d="M5 1C7.20914 1 9 2.79086 9 5C9 7.20914 7.20914 9 5 9C2.79086 9 1 7.20914 1 5C1 2.79086 2.79086 1 5 1ZM5 3C3.89543 3 3 3.89543 3 5C3 6.10457 3.89543 7 5 7C6.10457 7 7 6.10457 7 5C7 3.89543 6.10457 3 5 3Z" fill="black"/>
</svg>
