<svg width="24" height="24" viewBox="0 0 24 24" fill="none" xmlns="http://www.w3.org/2000/svg">
<path d="M22.7998 6C22.9103 6 23 6.08974 23 6.2002V7.7998C23 7.91026 22.9103 8 22.7998 8H20.0039L18.8857 20.7227C18.8222 21.4454 18.2167 21.9998 17.4912 22H6.50879C5.78331 21.9998 5.17781 21.4454 5.11426 20.7227L3.99609 8H1.2002C1.08974 8 1 7.91026 1 7.7998V6.2002C1 6.08974 1.08974 6 1.2002 6H22.7998Z" fill="#373737"/>
<path d="M17.7998 2C17.9103 2 18 2.08974 18 2.2002V3.7998C18 3.91026 17.9103 4 17.7998 4H6.2002C6.08974 4 6 3.91026 6 3.7998V2.2002C6 2.08974 6.08974 2 6.2002 2H17.7998Z" fill="#373737"/>
<path d="M10.8531 11.3633L10.6806 17.3232H9.21437L8.80469 11.3633H10.8531Z" fill="#D7F856"/>
<path d="M13.1469 11.3633L13.3194 17.3232H14.7856L15.1953 11.3633H13.1469Z" fill="#D7F856"/>
</svg>
