<svg width="236" height="43" viewBox="0 0 236 43" fill="none" xmlns="http://www.w3.org/2000/svg">
<g clip-path="url(#clip0_2751_29082)">
<path d="M9.80566 11.6468C12.546 11.6468 14.7165 12.6848 15.8154 14.3294L15.9512 13.4534C16.0597 12.8064 16.6165 12.3206 17.2812 12.3206H21.5273C21.7714 12.3208 21.9746 12.5234 21.9746 12.7659V31.0726C21.9746 38.2444 17.8233 42.5716 10.9316 42.5716C4.77276 42.558 0.635162 39.0937 0.0517578 33.432C0.0517578 33.405 0.065641 33.3909 0.0927734 33.3909H3.19922C4.44724 33.391 5.68214 33.8897 6.49609 34.8333C7.44573 35.9522 8.74814 36.9505 10.8916 36.9505C13.8758 36.9503 15.7616 35.1843 15.7617 32.3402C15.7617 31.3561 14.7304 30.7624 13.8486 31.1937C12.6819 31.7733 11.2437 32.097 9.68359 32.097C4.04014 32.1104 0.132812 27.9854 0.132812 21.973C0.132858 15.9606 4.12156 11.6469 9.80566 11.6468ZM45.8271 21.2005C52.2304 21.2005 56.9111 25.4474 56.9111 31.7698C56.9111 38.0924 52.2304 42.2982 45.8271 42.2982C39.424 42.2981 34.7031 38.0923 34.7031 31.7698C34.7031 25.4474 39.3833 21.2006 45.8271 21.2005ZM132.954 9.72199C135.694 9.72199 137.865 10.76 138.964 12.4046L139.1 11.5286C139.208 10.8816 139.765 10.3958 140.43 10.3958H144.825C144.988 10.3961 145.123 10.5311 145.123 10.6927V29.1478C145.123 36.3196 140.972 40.6468 134.08 40.6468C127.935 40.6467 123.784 37.1825 123.2 31.5208C123.2 31.4939 123.214 31.4798 123.241 31.4798H126.348C127.596 31.4798 128.831 31.9786 129.645 32.9222C130.594 34.0411 131.897 35.0394 134.04 35.0394C137.024 35.0392 138.91 33.2724 138.91 30.428C138.91 29.4442 137.879 28.8513 136.997 29.2825C135.83 29.8622 134.392 30.1859 132.832 30.1859C127.189 30.1858 123.281 26.0606 123.281 20.0482C123.281 14.0358 127.27 9.7221 132.954 9.72199ZM166.124 9.69562C171.727 9.69569 175.634 13.5781 175.634 20.0218C175.634 26.4655 172.175 30.9141 166.165 30.9144C163.384 30.9144 160.806 29.8761 159.64 28.3528V39.5823C159.64 39.7979 159.463 39.9601 159.26 39.9603H153.819C153.602 39.9603 153.439 39.7846 153.439 39.5823V10.68C153.439 10.4913 153.602 10.3295 153.792 10.3294V10.3431H156.804C158.228 10.3431 159.422 11.3941 159.599 12.7825C160.725 10.9357 163.262 9.69562 166.124 9.69562ZM56.6406 18.5589H60.5469C61.8085 18.5589 62.9079 19.3943 63.2471 20.5941L64.5225 25.0833C64.943 26.5931 65.3364 28.2918 65.6484 30.0443H65.8926C66.191 28.4266 66.4348 27.5367 67.208 25.0833L69.1211 18.9896C69.2026 18.7337 69.4467 18.559 69.7178 18.5589H75.1582C75.4294 18.559 75.6734 18.7472 75.7549 19.0032L77.5186 25.0833C77.6949 25.6766 78.441 28.5346 78.7666 30.1253H79.0107C79.3635 28.4672 80.1234 25.717 80.2998 25.0833L81.6973 20.3382C82.0093 19.2732 82.9862 18.5452 84.0986 18.5452H88.29C88.5342 18.5452 88.7103 18.7877 88.6289 19.0169L81.9414 37.9847C81.8193 38.3351 81.4932 38.5638 81.127 38.5638H76.623C76.2433 38.5637 75.9044 38.3076 75.7959 37.9437L74.0459 32.1878C73.2726 29.6534 72.7842 27.6577 72.54 26.4984C72.4992 26.3235 72.2684 26.3235 72.2275 26.4984C71.9969 27.4959 71.5491 29.1544 70.5859 32.3089L68.8359 37.9437C68.7274 38.3076 68.3886 38.5501 68.0088 38.5501H63.2334C62.8536 38.5501 62.5284 38.3078 62.4062 37.9573L56.2607 19.0032C56.1793 18.7741 56.3554 18.5316 56.5996 18.5316L56.6406 18.5589ZM45.8271 26.7415C42.9785 26.7416 40.9572 28.75 40.957 31.7425C40.957 34.7352 42.9376 36.7844 45.8271 36.7845C48.6896 36.7845 50.6572 34.7757 50.6572 31.7425C50.657 28.7096 48.6759 26.7415 45.8271 26.7415ZM84.9893 2.28156C86.6307 2.40289 87.8789 3.6426 87.8789 5.27375C87.8789 6.95872 86.6175 7.91614 84.8135 8.32062L32.0762 21.4202C31.737 21.5011 31.5058 21.7981 31.4922 22.1351V33.6204C31.4786 33.9843 31.1806 34.2805 30.8145 34.2806H25.8086C25.4423 34.2806 25.1436 33.9844 25.1436 33.6204V12.8734C25.1436 12.6442 25.3202 12.4691 25.5508 12.4691H27.4502C29.9846 12.4693 30.9115 15.2915 30.9229 15.3265C31.0313 15.2989 82.793 2.12019 84.9893 2.28156ZM96.7598 9.99543C97.1802 9.99557 97.5195 10.3325 97.5195 10.7503L97.3926 30.4017C97.3926 30.8194 97.0541 31.1563 96.6338 31.1566H91.9531C91.5326 31.1566 91.1934 30.8196 91.1934 30.4017L91.3193 10.7503C91.3193 10.3324 91.6586 9.99546 92.0791 9.99543H96.7598ZM113.116 10.3695C117.919 10.3695 120.687 13.4164 120.687 18.6605V30.4964C120.686 30.7929 120.442 31.0355 120.144 31.0355H115.029C114.731 31.0355 114.486 30.7929 114.486 30.4964V20.1429C114.486 17.622 113.075 15.9778 110.945 15.9778C108.49 15.978 106.916 17.5816 106.916 20.0618V30.4964C106.916 30.7929 106.672 31.0354 106.374 31.0355H101.26C100.961 31.0355 100.717 30.7929 100.717 30.4964H100.703V11.5823C100.703 11.2726 100.961 11.0172 101.272 11.0169H104.406C105.641 11.0169 106.713 11.8925 106.943 13.0921C108.191 11.3667 110.484 10.3695 113.116 10.3695ZM227.047 8.49543C231.904 8.49548 235.336 11.2731 235.458 15.4251C235.458 15.5598 235.349 15.6672 235.214 15.6673H232.568C231.117 15.6673 229.625 15.1824 228.702 14.0638C228.282 13.5515 227.616 13.2415 226.734 13.2415C225.242 13.2416 224.293 14.0098 224.293 15.1556C224.293 16.126 225.107 16.6791 226.599 17.0296L230.574 17.8782C234.074 18.6466 236 20.2511 236 23.6614C236 28.2044 232.107 30.968 226.559 30.9681C221.01 30.9681 217.564 28.151 217.374 24.0394C217.374 23.8643 217.523 23.7027 217.699 23.7025H220.847C222.163 23.7025 223.343 24.3222 224.266 25.2523C224.808 25.7915 225.663 26.0882 226.83 26.0882C228.878 26.0881 229.828 25.3604 229.828 24.2552C229.828 23.6216 229.489 22.934 227.901 22.597L223.967 21.7474C220.033 20.8981 218.106 19.1992 218.106 15.4652C218.107 11.0436 221.905 8.49543 227.047 8.49543ZM206.639 4.70246C209.528 4.70265 211.861 7.02159 211.861 9.89289V10.3099C211.861 10.8491 211.794 10.9036 212.336 10.9036H215.062C215.415 10.9036 215.687 11.1867 215.687 11.5237V15.4066C215.686 15.7568 215.402 16.0267 215.062 16.0267H212.16C211.997 16.0267 211.861 16.1609 211.861 16.3226V30.3157C211.861 30.6527 211.59 30.9221 211.251 30.9222H206.272C205.933 30.9222 205.661 30.6528 205.661 30.3157V16.3362C205.661 16.1746 205.526 16.0395 205.363 16.0394H202.46C202.107 16.0394 201.836 15.7563 201.836 15.4193V11.5374C201.836 11.1869 202.121 10.9173 202.46 10.9173H205.363C205.526 10.9172 205.661 10.7821 205.661 10.6204V5.33625C205.661 4.79701 205.825 4.70246 206.367 4.70246H206.639ZM189.359 9.72297C195.763 9.72297 200.443 13.9698 200.443 20.2923C200.443 26.6148 195.763 30.8206 189.359 30.8206C182.956 30.8204 178.235 26.6146 178.235 20.2923C178.235 13.9699 182.916 9.72318 189.359 9.72297ZM11.0137 17.0257C8.15128 17.0257 6.37413 18.9937 6.37402 21.8245C6.37402 24.6554 8.31347 26.7453 11.0537 26.7454C13.8755 26.7454 15.7754 24.7768 15.7754 21.8245C15.7753 18.8725 13.8758 17.0259 11.0137 17.0257ZM164.604 15.3577C161.661 15.3577 159.693 17.3661 159.693 20.3587C159.693 23.3515 161.715 25.3607 164.604 25.3607C167.548 25.3606 169.407 23.3245 169.407 20.3587C169.407 17.393 167.548 15.3577 164.604 15.3577ZM189.359 15.264C186.511 15.2642 184.476 17.2726 184.476 20.265C184.476 23.2575 186.456 25.3067 189.359 25.307C192.222 25.307 194.189 23.2981 194.189 20.265C194.189 17.232 192.208 15.264 189.359 15.264ZM134.162 15.1009C131.3 15.1009 129.523 17.0689 129.522 19.8997C129.522 22.7306 131.462 24.8205 134.202 24.8206C137.024 24.8206 138.924 22.852 138.924 19.8997C138.924 16.9477 137.024 15.1011 134.162 15.1009ZM92.3057 0.498358C95.0052 -0.943926 97.7596 0.876198 97.7598 3.47785C97.7598 5.44605 96.1852 6.9964 94.2588 6.9964C91.7493 6.99609 89.9047 4.48888 91.0713 1.83332H91.0576C91.3018 1.26715 91.7495 0.794927 92.3057 0.498358Z" fill="black"/>
</g>
<defs>
<clipPath id="clip0_2751_29082">
<rect width="236" height="43" fill="white"/>
</clipPath>
</defs>
</svg>
