<svg xmlns="http://www.w3.org/2000/svg" width="119" height="20" viewBox="0 0 119 20" fill="none">
  <g clip-path="url(#clip0_2180_698)">
    <path d="M42.6847 3.71513L16.1912 9.73461C16.0188 9.77492 15.9016 9.92272 15.8947 10.0907L15.8189 15.8146C15.8189 15.9959 15.6672 16.1437 15.481 16.1437H13.0054C12.8192 16.1437 12.6675 15.9959 12.6675 15.8146V5.47529C12.6675 5.36108 12.7572 5.27374 12.8744 5.27374H14.4535C15.3775 5.27374 15.5982 6.698 15.5982 6.698C15.5982 6.698 41.6504 0.624767 42.7675 0.705385C43.6019 0.765849 44.2363 1.38392 44.2363 2.19682C44.2363 3.03659 43.595 3.51358 42.6778 3.71513H42.6847Z" fill="white"/>
    <path d="M23.2456 9.43213C26.5004 9.43213 28.8794 11.5484 28.8794 14.6992C28.8794 17.85 26.5004 19.9461 23.2456 19.9461C19.9908 19.9461 17.5911 17.85 17.5911 14.6992C17.5911 11.5484 19.9701 9.43213 23.2456 9.43213ZM23.2456 17.1916C24.7006 17.1916 25.7005 16.1906 25.7005 14.679C25.7005 13.1674 24.6937 12.1866 23.2456 12.1866C21.7975 12.1866 20.77 13.1876 20.77 14.679C20.77 16.1705 21.7768 17.1916 23.2456 17.1916Z" fill="white"/>
    <path d="M28.314 7.88025H30.2999C30.9412 7.88025 31.4998 8.29678 31.6722 8.8947L32.3204 11.1318C32.5342 11.8843 32.7341 12.7308 32.8927 13.6041H33.0169C33.1686 12.798 33.2927 12.3546 33.6857 11.1318L34.6305 8.19601C34.6925 8.0079 34.8718 7.88025 35.0787 7.88025H37.6232C37.8301 7.88025 38.0163 8.01462 38.0714 8.20944L38.9334 11.1318C39.0231 11.4274 39.4023 12.845 39.5678 13.6377H39.6919C39.8712 12.8114 40.2574 11.4409 40.347 11.1318L41.0573 8.76705C41.2159 8.23632 41.7124 7.87354 42.2779 7.87354H44.4086C44.5328 7.87354 44.6224 7.99446 44.581 8.10867L41.2228 17.4671C41.1401 17.6955 40.9125 17.85 40.6642 17.85H38.5955C38.3335 17.85 38.1059 17.6821 38.0301 17.4402L37.175 14.679C36.7819 13.416 36.5337 12.4285 36.4096 11.8507C36.3889 11.7634 36.2648 11.7634 36.2441 11.8507C36.1268 12.3478 35.8993 13.1742 35.4097 14.7395L34.5546 17.4469C34.4788 17.6888 34.2512 17.8567 33.9892 17.8567H31.7825C31.5274 17.8567 31.2998 17.6955 31.2171 17.4536L28.1278 8.10867C28.0864 7.99446 28.176 7.87354 28.3002 7.87354L28.314 7.88025Z" fill="white"/>
    <path d="M45.7395 0.913499C45.8636 0.631336 46.0912 0.3962 46.3739 0.2484C47.7462 -0.470444 49.146 0.436509 49.146 1.73312C49.146 2.71397 48.3461 3.48656 47.3669 3.48656C46.0912 3.48656 45.1534 2.23698 45.7464 0.913499H45.7395ZM46.1877 5.15267H48.5668C48.7805 5.15267 48.9529 5.32062 48.9529 5.52888V14.7529C48.9529 14.9612 48.7805 15.1292 48.5668 15.1292H46.1877C45.974 15.1292 45.8016 14.9612 45.8016 14.7529V5.52888C45.8016 5.32062 45.974 5.15267 46.1877 5.15267Z" fill="white"/>
    <path d="M50.4355 14.7733V5.60972C50.4355 5.3813 50.6217 5.19991 50.8562 5.19991H52.325C52.9525 5.19991 53.4972 5.63659 53.6145 6.23451C54.2489 5.37459 55.4143 4.87744 56.752 4.87744C59.1931 4.87744 60.5999 6.39575 60.5999 9.00912V14.7666C60.5999 14.995 60.4137 15.1764 60.1792 15.1764H57.8622C57.6278 15.1764 57.4416 14.995 57.4416 14.7666V9.74812C57.4416 8.49182 56.7244 7.6722 55.6418 7.6722C54.3937 7.6722 53.5938 8.47166 53.5938 9.70781V14.7666C53.5938 14.995 53.4076 15.1764 53.1731 15.1764H50.8562C50.6217 15.1764 50.4355 14.995 50.4355 14.7666V14.7733Z" fill="white"/>
    <path d="M66.6612 4.58838C68.0542 4.58838 69.1575 5.10568 69.716 5.9253C69.8126 5.34753 70.3229 4.92429 70.9159 4.92429H72.8467V14.2625C72.8467 17.8366 70.7366 19.9931 67.2336 19.9931C64.096 19.9931 61.9928 18.2599 61.7032 15.4248H62.9789C63.8547 15.4248 64.7304 15.7607 65.2614 16.4392C65.6476 16.9297 66.3233 17.2051 67.2198 17.2051C68.7369 17.2051 69.6954 16.325 69.6954 14.9075C69.6954 14.4171 69.1713 14.1215 68.7231 14.3364C68.13 14.6253 67.3991 14.7866 66.6061 14.7866C63.7374 14.7866 61.7515 12.7308 61.7515 9.7345C61.7515 6.73819 63.7788 4.58838 66.6681 4.58838H66.6612ZM67.2956 12.1127C68.73 12.1127 69.6954 11.1319 69.6954 9.6606C69.6954 8.18932 68.73 7.26893 67.2749 7.26893C65.8199 7.26893 64.9166 8.24978 64.9166 9.6606C64.9166 11.0714 65.9027 12.1127 67.2956 12.1127Z" fill="white"/>
    <path d="M4.93737 4.56836C6.33031 4.56836 7.43363 5.08566 7.99219 5.90528C8.08873 5.32751 8.59901 4.90427 9.19205 4.90427H10.9022C11.0263 4.90427 11.1298 5.00504 11.1298 5.12597V14.2492C11.1298 17.8233 9.01965 19.9798 5.51661 19.9798C2.44111 19.9731 0.351694 18.307 1.02256e-05 15.5727C-0.0137813 15.4854 0.062072 15.4048 0.151717 15.4048H1.25504C2.1308 15.4048 3.00656 15.7407 3.53753 16.4192C3.92369 16.9096 4.59948 17.1851 5.49592 17.1851C7.01299 17.1851 7.9715 16.305 7.9715 14.8875C7.9715 14.397 7.44742 14.1014 6.9992 14.3164C6.40616 14.6053 5.67521 14.7665 4.8822 14.7665C2.00667 14.7665 0.0206975 12.7108 0.0206975 9.71448C0.0206975 6.71817 2.04805 4.56836 4.93737 4.56836ZM5.57178 12.0927C7.00609 12.0927 7.9715 11.1119 7.9715 9.64058C7.9715 8.1693 7.00609 7.24891 5.55109 7.24891C4.09609 7.24891 3.19274 8.22976 3.19274 9.64058C3.19274 11.0514 4.17884 12.0927 5.57178 12.0927Z" fill="white"/>
    <path d="M77.9289 5.15939H79.2046C79.9286 5.15939 80.5355 5.6834 80.6251 6.37538C81.1975 5.45499 82.487 4.83691 83.942 4.83691C86.7899 4.83691 88.7759 6.77175 88.7759 9.98303C88.7759 13.1943 87.0175 15.4113 83.9627 15.4113C82.549 15.4113 81.2388 14.894 80.6458 14.1349V19.5027C80.6458 19.7378 80.4527 19.9259 80.2114 19.9259H77.922C77.6806 19.9259 77.4875 19.7378 77.4875 19.5027V5.58263C77.4875 5.3475 77.6806 5.15939 77.922 5.15939H77.9289ZM83.1696 12.6434C84.666 12.6434 85.6107 11.629 85.6107 10.151C85.6107 8.67299 84.666 7.65855 83.1696 7.65855C81.6733 7.65855 80.6734 8.65955 80.6734 10.151C80.6734 11.6424 81.7009 12.6434 83.1696 12.6434Z" fill="white"/>
    <path d="M95.32 4.73633C98.5748 4.73633 100.954 6.85255 100.954 10.0034C100.954 13.1542 98.5748 15.2503 95.32 15.2503C92.0652 15.2503 89.6655 13.1542 89.6655 10.0034C89.6655 6.85255 92.0445 4.73633 95.32 4.73633ZM95.32 12.4958C96.775 12.4958 97.7749 11.4948 97.7749 9.98322C97.7749 8.47163 96.7681 7.49078 95.32 7.49078C93.8719 7.49078 92.8375 8.49179 92.8375 9.98322C92.8375 11.4747 93.8443 12.4958 95.32 12.4958Z" fill="white"/>
    <path d="M103.429 14.8136V8.35744C103.429 8.08872 103.209 7.87373 102.933 7.87373H101.981C101.705 7.87373 101.485 7.65875 101.485 7.39003V5.80454C101.485 5.53581 101.705 5.32083 101.981 5.32083H102.933C103.209 5.32083 103.429 5.10585 103.429 4.83712V2.71418C103.429 2.44545 103.65 2.23047 103.926 2.23047C105.395 2.23047 106.581 3.38599 106.581 4.81697V4.83712C106.581 5.10585 106.801 5.32083 107.077 5.32083H108.029C108.305 5.32083 108.525 5.53581 108.525 5.80454V7.39003C108.525 7.65875 108.305 7.87373 108.029 7.87373H107.077C106.801 7.87373 106.581 8.08872 106.581 8.35744V14.8136C106.581 15.0823 106.36 15.2973 106.084 15.2973H103.926C103.65 15.2973 103.429 15.0823 103.429 14.8136Z" fill="white"/>
    <path d="M110.925 11.6763C111.69 11.6763 112.463 11.9047 112.994 12.4421C113.27 12.7176 113.711 12.8654 114.311 12.8654C115.359 12.8654 115.842 12.5026 115.842 11.9517C115.842 11.6292 115.669 11.2933 114.856 11.1254L112.849 10.7021C110.842 10.2789 109.856 9.42567 109.856 7.55802C109.856 5.34774 111.801 4.07129 114.421 4.07129C116.849 4.07129 118.572 5.40149 118.71 7.4035C118.717 7.54458 118.593 7.66551 118.448 7.66551H117.759C116.773 7.66551 115.869 7.26242 115.083 6.69138C114.876 6.53686 114.6 6.45624 114.263 6.45624C113.497 6.45624 113.021 6.83918 113.021 7.41022C113.021 7.90065 113.435 8.17609 114.201 8.34405L116.228 8.76729C118.021 9.15023 119 9.95641 119 11.6561C119 13.9336 117.014 15.3108 114.173 15.3108C111.332 15.3108 109.587 13.9134 109.484 11.8644C109.484 11.7636 109.567 11.6695 109.677 11.6695H110.918L110.925 11.6763Z" fill="white"/>
  </g>
  <defs>
    <clipPath id="clip0_2180_698">
      <rect width="119" height="20" fill="white"/>
    </clipPath>
  </defs>
</svg>
