<svg width="18" height="18" viewBox="0 0 18 18" fill="none" xmlns="http://www.w3.org/2000/svg">
<g clip-path="url(#clip0_625_1185)">
<path d="M9.00352 14.9334C8.47162 14.9334 7.95079 14.8963 7.44499 14.8246C6.93865 15.1815 4.01329 17.2364 3.73717 17.2749C3.73717 17.2749 3.62395 17.3189 3.52765 17.2622C3.43135 17.2055 3.44881 17.0568 3.44881 17.0568C3.47779 16.859 4.20715 14.3403 4.34161 13.8768C1.87093 12.6528 0.228516 10.4851 0.228516 8.0147C0.228516 4.19357 4.1572 1.09595 9.00352 1.09595C13.8498 1.09595 17.7785 4.19357 17.7785 8.0147C17.7785 11.8358 13.8498 14.9334 9.00352 14.9334Z" fill="black"/>
</g>
<defs>
<clipPath id="clip0_625_1185">
<rect width="18" height="18" fill="white"/>
</clipPath>
</defs>
</svg>
